<svg xmlns="http://www.w3.org/2000/svg" width="32" height="32" fill="none">
  <g clip-path="url(#a)">
    <path fill="#ffda44" d="M0 16c0 1.957.352 3.831.995 5.565L16 22.956l15.005-1.391c.643-1.734.995-3.608.995-5.566s-.352-3.831-.995-5.565L16 9.043.995 10.434A16 16 0 0 0 0 16"/>
    <path fill="#d80027" d="M31.007 10.435C28.747 4.342 22.882 0 16.002 0S3.258 4.342.998 10.435zM.996 21.566c2.26 6.093 8.125 10.435 15.005 10.435s12.744-4.342 15.005-10.435z"/>
  </g>
  <defs>
    <clipPath id="a">
      <path fill="#fff" d="M0 0h32v32H0z"/>
    </clipPath>
  </defs>
</svg>
