<svg xmlns="http://www.w3.org/2000/svg" width="32" height="32" fill="none">
  <g clip-path="url(#a)">
    <path fill="#f0f0f0" d="M16 32c8.837 0 16-7.163 16-16S24.837 0 16 0 0 7.163 0 16s7.163 16 16 16"/>
    <path fill="#0052b4" d="M3.308 6.258A15.9 15.9 0 0 0 .55 11.825h8.324zm28.142 5.567a15.9 15.9 0 0 0-2.757-5.567l-5.567 5.567zM.551 20.176a15.9 15.9 0 0 0 2.757 5.567l5.567-5.567zM25.74 3.307A15.9 15.9 0 0 0 20.174.551v8.323zM6.259 28.692a15.9 15.9 0 0 0 5.567 2.756v-8.323zM11.826.55a15.9 15.9 0 0 0-5.567 2.757l5.567 5.567zm8.347 30.899a15.9 15.9 0 0 0 5.568-2.757l-5.568-5.567zm2.953-11.273 5.567 5.567a15.9 15.9 0 0 0 2.756-5.567z"/>
    <path fill="#d80027" d="M31.865 13.913H18.087V.135a16.2 16.2 0 0 0-4.174 0v13.778H.135a16.2 16.2 0 0 0 0 4.174h13.778v13.778a16.2 16.2 0 0 0 4.174 0V18.087h13.778a16.2 16.2 0 0 0 0-4.174"/>
    <path fill="#d80027" d="m20.174 20.176 7.14 7.14q.492-.494.94-1.028l-6.113-6.112zm-8.348 0-7.14 7.14q.492.492 1.027.94l6.113-6.113zm0-8.349-7.14-7.14q-.493.494-.94 1.028l6.112 6.112zm8.348-.001 7.14-7.14a16 16 0 0 0-1.027-.94L20.174 9.86z"/>
  </g>
  <defs>
    <clipPath id="a">
      <path fill="#fff" d="M0 0h32v32H0z"/>
    </clipPath>
  </defs>
</svg>
