<svg xmlns="http://www.w3.org/2000/svg" width="32" height="32" fill="none">
  <g clip-path="url(#a)">
    <path fill="#f0f0f0" d="M16 32c8.837 0 16-7.163 16-16S24.837 0 16 0 0 7.163 0 16s7.163 16 16 16"/>
    <path fill="#d80027" d="M15.304 15.998h16.695c0-1.444-.192-2.843-.55-4.174H15.303zm0-8.348H29.65a16.1 16.1 0 0 0-3.692-4.173H15.304zM16 31.998a15.93 15.93 0 0 0 9.959-3.479H6.039A15.93 15.93 0 0 0 16 31.999M2.348 24.346h27.303a16 16 0 0 0 1.797-4.174H.551a16 16 0 0 0 1.797 4.174"/>
    <path fill="#0052b4" d="M7.412 2.499H8.87l-1.357.985.518 1.594-1.356-.985-1.356.985.447-1.377A16 16 0 0 0 2.663 7.16h.467l-.863.627q-.201.336-.387.683l.412 1.27-.769-.56q-.287.608-.523 1.242l.454 1.398H3.13l-1.356.986.518 1.594-1.356-.985-.812.59Q0 14.987 0 16h16V0c-3.16 0-6.107.917-8.588 2.499m.62 11.901-1.357-.985-1.356.985.518-1.594-1.356-.986h1.676l.518-1.594.518 1.594H8.87l-1.357.986zm-.519-6.255.518 1.594-1.356-.985-1.356.985.518-1.594-1.356-.985h1.676l.518-1.595.518 1.595H8.87zm6.258 6.255-1.357-.985-1.356.985.518-1.594-1.356-.986h1.676l.518-1.594.518 1.594h1.677l-1.357.986zm-.519-6.255.518 1.594-1.356-.985-1.356.985.518-1.594-1.356-.985h1.676l.518-1.595.518 1.595h1.677zm0-4.661.518 1.594-1.356-.985-1.356.985.518-1.594-1.356-.985h1.676l.518-1.595.518 1.595h1.677z"/>
  </g>
  <defs>
    <clipPath id="a">
      <path fill="#fff" d="M0 0h32v32H0z"/>
    </clipPath>
  </defs>
</svg>
