<svg width="20" height="20" viewBox="0 0 20 20" fill="none" xmlns="http://www.w3.org/2000/svg">
<g id="Bitcoin (BTC)">
<path id="Bitcoin (BTC)_2" d="M19.701 12.419C18.3654 17.7762 12.9395 21.0365 7.58164 19.7006C2.22605 18.365 -1.03423 12.9387 0.301927 7.58197C1.63691 2.22419 7.06288 -1.03634 12.4191 0.299234C17.7765 1.63481 21.0366 7.0617 19.7009 12.4191L19.701 12.419H19.701Z" fill="#F7931A"/>
<path id="Bitcoin (BTC)_3" fill-rule="evenodd" clip-rule="evenodd" d="M14.4108 8.57479C14.6099 7.24401 13.5967 6.52866 12.2113 6.05146L12.6607 4.2488L11.5634 3.97537L11.1259 5.73057C10.8374 5.65862 10.5411 5.59082 10.2467 5.52361L10.6874 3.75683L9.59072 3.4834L9.14103 5.28547C8.9023 5.23112 8.66783 5.1774 8.44035 5.1208L8.44162 5.11513L6.92837 4.73724L6.63646 5.90927C6.63646 5.90927 7.45059 6.09589 7.43344 6.10737C7.8778 6.21828 7.95815 6.51244 7.94481 6.74559L7.43285 8.79924C7.46345 8.80701 7.50314 8.81826 7.54693 8.83585L7.51511 8.82791L7.51507 8.8279C7.48799 8.82112 7.45984 8.81408 7.43094 8.80716L6.71335 11.684C6.65905 11.819 6.52121 12.0216 6.21053 11.9447C6.22153 11.9606 5.41297 11.7457 5.41297 11.7457L4.86816 13.0018L6.29617 13.3578C6.45255 13.397 6.60708 13.4373 6.76005 13.4771L6.76015 13.4772C6.867 13.505 6.9731 13.5327 7.07853 13.5596L6.62444 15.383L7.7205 15.6564L8.17019 13.8524C8.46962 13.9337 8.76021 14.0087 9.04469 14.0794L8.59651 15.8748L9.6939 16.1483L10.1479 14.3283C12.0191 14.6825 13.4261 14.5397 14.0183 12.8472C14.4955 11.4846 13.9946 10.6986 13.0101 10.186C13.7272 10.0207 14.2672 9.5491 14.4112 8.57494L14.4109 8.57469L14.4108 8.57479ZM11.9037 12.0905C11.5925 13.3407 9.63565 12.8238 8.74031 12.5873C8.65977 12.566 8.58781 12.547 8.52642 12.5318L9.129 10.1162C9.20382 10.1349 9.29525 10.1554 9.39883 10.1786C10.325 10.3865 12.2224 10.8123 11.9037 12.0905H11.9037ZM9.5846 9.05751C10.3311 9.25672 11.9594 9.69131 12.243 8.55504H12.2431C12.5327 7.39293 10.9502 7.04256 10.1773 6.87144C10.0903 6.85219 10.0136 6.83521 9.951 6.81959L9.40468 9.0104C9.45626 9.02326 9.51679 9.03941 9.5846 9.05751Z" fill="white"/>
</g>
</svg>
