<svg width="30" height="20" viewBox="0 0 30 20" fill="none" xmlns="http://www.w3.org/2000/svg">
<path fill-rule="evenodd" clip-rule="evenodd" d="M28.3781 1.59515L25.1346 1.59515V0.000321865L28.3781 0.000322202V0H29.9997V4.78448H28.3781V1.59515ZM1.62159 1.65948L4.86507 1.65948V0.0646539L1.62159 0.0646537V0.064453L0 0.0644529V4.84893H1.62159L1.62159 1.65948ZM1.62185 18.4044L1.62185 15.2142H0.000265121L0.000265598 19.9986H0.000305176V19.9992H4.86507V18.4044H1.62185ZM20.9752 6.31491C20.7719 4.22114 18.9382 3.51825 16.5999 3.29121L16.5951 0.382138L14.7917 0.384419L14.7963 3.21916C14.678 3.21867 14.5604 3.21774 14.4433 3.21681H14.4433H14.4433H14.4433C14.0863 3.21399 13.7333 3.21121 13.3755 3.22095L13.3708 0.386216L11.5172 0.388559L11.5219 3.2233L7.84261 3.22794L7.84715 5.16691C7.84715 5.16691 9.20166 5.13 9.16168 5.16525C9.89563 5.17779 10.1338 5.59074 10.1889 5.93491L10.1748 9.23677L10.1837 13.876C10.1468 14.1046 9.99866 14.4527 9.49944 14.4553C9.52458 14.4706 8.16853 14.4412 8.16853 14.4412L7.86595 16.5563L11.4564 16.626L11.4612 19.5201L13.2533 19.5178L13.2485 16.6238C13.5397 16.633 13.8304 16.6289 14.1115 16.625C14.3219 16.622 14.527 16.6191 14.7232 16.6219L14.728 19.5159L16.5233 19.5137L16.5186 16.6196C19.567 16.466 21.6993 15.738 21.9666 12.9348C22.1862 10.6983 21.1237 9.69017 19.3768 9.26136C20.4588 8.74952 21.1131 7.84131 20.9752 6.31491ZM13.2459 8.62858L13.1549 8.62473V5.14498C13.2579 5.14579 13.3884 5.14298 13.5395 5.13974H13.5396H13.5396C14.819 5.11228 17.5725 5.05318 17.5775 6.88485C17.5726 8.81412 14.3371 8.67538 13.2459 8.62858ZM13.3077 14.3074L13.3078 14.3074C14.6511 14.3615 18.4632 14.5153 18.4462 12.6053C18.4622 10.7588 15.0849 10.8001 13.5729 10.8186H13.5729C13.4071 10.8207 13.2638 10.8224 13.1498 10.8214L13.1498 14.3011L13.2056 14.3033L13.3077 14.3074ZM28.3777 15.2142L28.3777 18.4044H25.1346V19.9992H29.9994V18.4044H29.9993V15.2142H28.3777Z" fill="#1B0F00"/>
</svg>
